<?xml version="1.0" encoding="utf-8"?>
<!-- Generator: Adobe Illustrator 16.2.1, SVG Export Plug-In . SVG Version: 6.00 Build 0)  -->
<!DOCTYPE svg PUBLIC "-//W3C//DTD SVG 1.1//EN" "http://www.w3.org/Graphics/SVG/1.1/DTD/svg11.dtd">
<svg version="1.1" id="Layer_1" xmlns="http://www.w3.org/2000/svg" xmlns:xlink="http://www.w3.org/1999/xlink" viewBox="0 0 370 230" enable-background="new 0 0 370 230" xml:space="preserve">
<path fill="#333333" d="M271.1,65.8c-5.4,0-15.2-7.6-40.3-7.6c-25,0-33.7,9.8-33.7,9.8s-4.3-2.1-11.9-2.1c-7.6,0-11.9,2.1-11.9,2.1
	s-8.7-9.8-33.7-9.8s-34.8,7.6-40.3,7.6c-6.5,0-5.4,2.2-5.4,5.4c0,4.4,0,4.4,3.3,5.4s7.6,3.3,10.9,14.2c3.3,10.9,8.7,26.1,32.7,26.1
	c24,0,33.7-14.2,35.9-35.9c0,0-2.2,0-2.2-4.4c0-3,3.6-5,10.9-5.4c7.2,0.3,10.9,2.4,10.9,5.4c0,4.4-2.2,4.4-2.2,4.4
	c2.2,21.8,12,35.9,35.9,35.9c24,0,29.4-15.2,32.7-26.1c3.3-10.9,7.6-13.1,10.9-14.2s3.3-1.1,3.3-5.4
	C276.5,67.9,277.6,65.8,271.1,65.8z M105.8,74.5l-7.6-2.2l7.6-2.2l3.3,2.2L105.8,74.5z M140.6,113.7c-21.8,0-29.4-18.5-29.4-33.7
	c0-15.2,16.3-16.3,29.4-16.3c14.2,0,30.5,2.2,30.5,18.5C171.1,98.4,161.3,113.7,140.6,113.7z M229.7,113.7
	c-20.7,0-30.5-15.2-30.5-31.6c0-16.3,16.3-18.5,30.5-18.5c13.1,0,29.4,1.1,29.4,16.3C259.1,95.2,251.5,113.7,229.7,113.7z
	 M264.6,74.5l-3.3-2.2l3.3-2.2l7.6,2.2L264.6,74.5z"/>
<g>
	<path fill="#00C9C9" d="M271,167.6c0,4.2-2.5,6.9-6.5,6.9c-3,0-5.1-1.5-6.7-3.1l-4,7c3,2.9,7,4.1,11.1,4.2c0.1,0,0,0,0.2,0
		c8.8,0,14.9-4.7,14.9-14.9V139h-9V167.6z"/>
	<path fill="#00C9C9" d="M297.4,150.5c0-2.2,1.7-3.8,4.7-4.2c0.5-0.1,1-0.1,1.4-0.1c4.4,0,9,1.5,12.5,4.7l5.1-6.7
		c-4.3-3.9-9.9-6-16.8-6c-10.1,0-16.3,5.9-16.3,13.1c0,16.2,24.8,11,24.8,18.6c0,2.4-2.4,4.8-7.5,4.8c-5.9,0-10.6-2.6-13.7-5.8l-5,7
		c4,4.1,9.9,6.8,18.2,6.8c11.6,0,17.2-5.9,17.2-13.8C322,152.8,297.4,157.4,297.4,150.5z"/>
	<polygon fill="#00C9C9" points="77,156 57,156 57,139 48,139 48,182 57,182 57,164 77,164 77,182 86,182 86,139 77,139 	"/>
	<path fill="#00C9C9" d="M115.2,138.2c-13,0-22.4,9.3-22.4,22.2s9.5,22.2,22.4,22.2c13,0,22.5-9.3,22.5-22.2
		S128.2,138.2,115.2,138.2z M115.2,174.5c-7.9,0-13-6.1-13-14.1c0-8.1,5.1-14.1,13-14.1s13.1,6.1,13.1,14.1
		C128.3,168.4,123.1,174.5,115.2,174.5z"/>
	<polygon fill="#00C9C9" points="179.6,170.1 171.4,139 164.3,139 156.1,170.1 148.6,139 138.3,139 150.6,182 160.3,182 
		167.8,152.5 175.4,182 185.1,182 197.3,139 187,139 	"/>
	<polygon fill="#00C9C9" points="211,139 202,139 202,182 229,182 229,174 211,174 	"/>
	<path fill="#00C9C9" d="M242.6,172.1c-2.8,0-5.2,2.4-5.2,5.2s2.4,5.2,5.2,5.2s5.2-2.4,5.2-5.2S245.4,172.1,242.6,172.1z"/>
</g>
</svg>
