<?xml version="1.0" encoding="utf-8"?>
<!-- Generator: Adobe Illustrator 16.2.1, SVG Export Plug-In . SVG Version: 6.00 Build 0)  -->
<!DOCTYPE svg PUBLIC "-//W3C//DTD SVG 1.1//EN" "http://www.w3.org/Graphics/SVG/1.1/DTD/svg11.dtd">
<svg version="1.1" id="Layer_1" xmlns="http://www.w3.org/2000/svg" xmlns:xlink="http://www.w3.org/1999/xlink" x="0px" y="0px"
	 width="277px" height="235px" viewBox="0 0 277 235" enable-background="new 0 0 277 235" xml:space="preserve">
<g>
	<path fill="#00C9C9" d="M56.4,73.7c-3.1,3.1-9.3,5.7-13.7,5.7h-34c-4.4,0-8.5,3.6-8.5,8v64c0,4.4,4.1,8,8.5,8h34
		c4.4,0,10.5,2.5,13.7,5.7l48.4,48.7c3.1,3.1,5.4,2.1,5.4-2.3v-184c0-4.4-2.3-5.5-5.4-2.3L56.4,73.7z"/>
</g>
<g>
	<path fill="#F7AE5B" d="M223.9,238.5c-1.5,0-3.1-0.6-4.2-1.8c-2.3-2.3-2.3-6.1,0-8.5c29.1-29.1,45.1-67.8,45.1-108.9
		c0-41.1-16-79.8-45.1-108.9c-2.3-2.3-2.3-6.1,0-8.5c2.3-2.3,6.1-2.3,8.5,0c31.4,31.4,48.6,73,48.6,117.4s-17.3,86-48.6,117.4
		C227,237.9,225.4,238.5,223.9,238.5z"/>
</g>
<g>
	<path fill="#A6B77F" d="M195.6,210.2c-1.5,0-3.1-0.6-4.2-1.8c-2.3-2.3-2.3-6.1,0-8.5c21.5-21.5,33.4-50.2,33.4-80.6
		c0-30.4-11.9-59.1-33.4-80.6c-2.3-2.3-2.3-6.1,0-8.5c2.3-2.3,6.1-2.3,8.5,0c23.8,23.8,36.9,55.4,36.9,89.1
		c0,33.7-13.1,65.3-36.9,89.1C198.7,209.6,197.1,210.2,195.6,210.2z"/>
</g>
<g>
	<path fill="#5BC0A3" d="M167.3,181.9c-1.5,0-3.1-0.6-4.2-1.8c-2.3-2.3-2.3-6.1,0-8.5c14-14,21.7-32.6,21.7-52.3S177.1,81,163.1,67
		c-2.3-2.3-2.3-6.1,0-8.5c2.3-2.3,6.1-2.3,8.5,0c16.2,16.2,25.2,37.8,25.2,60.8c0,23-8.9,44.6-25.2,60.8
		C170.4,181.3,168.9,181.9,167.3,181.9z"/>
</g>
<g>
	<path fill="#00C9C9" d="M139,153.6c-1.5,0-3.1-0.6-4.2-1.8c-2.3-2.3-2.3-6.1,0-8.5c6.4-6.4,10-15,10-24s-3.5-17.6-10-24
		c-2.3-2.3-2.3-6.1,0-8.5c2.3-2.3,6.1-2.3,8.5,0c8.7,8.7,13.5,20.2,13.5,32.5s-4.8,23.8-13.5,32.5
		C142.1,153.1,140.6,153.6,139,153.6z"/>
</g>
</svg>
